<svg width="193" height="34" viewBox="0 0 193 34" fill="none" xmlns="http://www.w3.org/2000/svg">
<path d="M69.5433 21.1843H74.1433V23.4043H66.7433V9.4443H69.5433V21.1843ZM78.723 9.4443V23.4043H75.923V9.4443H78.723ZM94.0294 9.4443L88.9094 23.4043H85.5094L80.3894 9.4443H83.3894L87.2294 20.5443L91.0494 9.4443H94.0294ZM98.5081 11.7043V15.2043H103.208V17.4243H98.5081V21.1243H103.808V23.4043H95.7081V9.4243H103.808V11.7043H98.5081ZM109.153 21.1843H113.753V23.4043H106.353V9.4443H109.153V21.1843ZM126.632 9.4443L121.912 18.5443V23.4043H119.112V18.5443L114.372 9.4443H117.532L120.532 15.8243L123.512 9.4443H126.632ZM145.553 9.4443L140.433 23.4043H137.033L131.913 9.4443H134.913L138.753 20.5443L142.573 9.4443H145.553ZM150.032 11.7043V15.2043H154.732V17.4243H150.032V21.1243H155.332V23.4043H147.232V9.4243H155.332V11.7043H150.032ZM165.076 23.4043L161.996 17.9643H160.676V23.4043H157.876V9.4443H163.116C164.196 9.4443 165.116 9.63763 165.876 10.0243C166.636 10.3976 167.203 10.911 167.576 11.5643C167.963 12.2043 168.156 12.9243 168.156 13.7243C168.156 14.6443 167.889 15.4776 167.356 16.2243C166.823 16.9576 166.029 17.4643 164.976 17.7443L168.316 23.4043H165.076ZM160.676 15.8643H163.016C163.776 15.8643 164.343 15.6843 164.716 15.3243C165.089 14.951 165.276 14.4376 165.276 13.7843C165.276 13.1443 165.089 12.651 164.716 12.3043C164.343 11.9443 163.776 11.7643 163.016 11.7643H160.676V15.8643ZM175.509 23.5443C174.535 23.5443 173.655 23.3776 172.869 23.0443C172.095 22.711 171.482 22.231 171.029 21.6043C170.575 20.9776 170.342 20.2376 170.329 19.3843H173.329C173.369 19.9576 173.569 20.411 173.929 20.7443C174.302 21.0776 174.809 21.2443 175.449 21.2443C176.102 21.2443 176.615 21.091 176.989 20.7843C177.362 20.4643 177.549 20.051 177.549 19.5443C177.549 19.131 177.422 18.791 177.169 18.5243C176.915 18.2576 176.595 18.051 176.209 17.9043C175.835 17.7443 175.315 17.571 174.649 17.3843C173.742 17.1176 173.002 16.8576 172.429 16.6043C171.869 16.3376 171.382 15.9443 170.969 15.4243C170.569 14.891 170.369 14.1843 170.369 13.3043C170.369 12.4776 170.575 11.7576 170.989 11.1443C171.402 10.531 171.982 10.0643 172.729 9.7443C173.475 9.41096 174.329 9.2443 175.289 9.2443C176.729 9.2443 177.895 9.59763 178.789 10.3043C179.695 10.9976 180.195 11.971 180.289 13.2243H177.209C177.182 12.7443 176.975 12.351 176.589 12.0443C176.215 11.7243 175.715 11.5643 175.089 11.5643C174.542 11.5643 174.102 11.7043 173.769 11.9843C173.449 12.2643 173.289 12.671 173.289 13.2043C173.289 13.5776 173.409 13.891 173.649 14.1443C173.902 14.3843 174.209 14.5843 174.569 14.7443C174.942 14.891 175.462 15.0643 176.129 15.2643C177.035 15.531 177.775 15.7976 178.349 16.0643C178.922 16.331 179.415 16.731 179.829 17.2643C180.242 17.7976 180.449 18.4976 180.449 19.3643C180.449 20.111 180.255 20.8043 179.869 21.4443C179.482 22.0843 178.915 22.5976 178.169 22.9843C177.422 23.3576 176.535 23.5443 175.509 23.5443ZM185.676 11.7043V15.2043H190.376V17.4243H185.676V21.1243H190.976V23.4043H182.876V9.4243H190.976V11.7043H185.676Z" fill="white"/>
<path fill-rule="evenodd" clip-rule="evenodd" d="M20.9053 1.82543C17.613 5.78701 20.0404 10.7606 22.5272 15.4292C18.8031 5.53603 31.8725 -4.98995 42.6225 11.0817C37.2482 -2.10107 24.5282 -0.708582 20.9053 1.82543Z" fill="white"/>
<path fill-rule="evenodd" clip-rule="evenodd" d="M25.5578 21.941C23.8671 18.0469 16.0411 16.1295 12.7232 12.4756C12.0998 14.7222 12.0849 17.0457 12.8729 19.3058C15.7767 27.6203 28.0783 30.6508 25.5578 21.941Z" fill="#B8B8B8"/>
<path fill-rule="evenodd" clip-rule="evenodd" d="M12.723 12.4753C16.0409 16.1293 23.8669 18.0453 25.5576 21.9407C23.8062 15.8864 15.9937 7.73653 20.9038 1.8252C10.9999 3.52398 10.0756 9.5635 12.7216 12.4753H12.723Z" fill="white"/>
<path fill-rule="evenodd" clip-rule="evenodd" d="M12.7226 12.4753C13.8479 8.40039 16.9675 4.57509 20.9048 1.8252C11.0009 3.52398 10.0766 9.5635 12.7226 12.4753Z" fill="#B8B8B8"/>
<path fill-rule="evenodd" clip-rule="evenodd" d="M24.1161 26.0822C17.2009 23.2932 14.2527 19.0145 13.2434 14.0059C12.9695 15.6938 13.0707 17.425 13.6644 19.1224C14.5266 21.5849 16.4021 23.845 18.8565 25.2551C20.2261 26.0417 22.6751 26.9593 24.1161 26.0809V26.0822Z" fill="url(#paint0_linear_145_4586)"/>
<path fill-rule="evenodd" clip-rule="evenodd" d="M33.2163 30.5744C36.5464 26.4779 34.1527 21.3869 31.6957 16.6104C35.3509 26.7464 22.1722 37.6623 11.5234 21.2317C16.806 34.7357 29.5651 33.2055 33.2163 30.5744Z" fill="white"/>
<path fill-rule="evenodd" clip-rule="evenodd" d="M28.7084 9.94226C30.3721 13.9308 38.2022 15.8388 41.4986 19.5683C42.1408 17.2555 42.1732 14.8672 41.4001 12.5518C38.5544 4.03227 26.25 1.01386 28.7084 9.94226Z" fill="#B8B8B8"/>
<path fill-rule="evenodd" clip-rule="evenodd" d="M41.4972 19.5684C38.2008 15.8402 30.3721 13.9309 28.707 9.94238C30.4153 16.1492 38.1819 24.4623 33.2151 30.5734C43.1541 28.7518 44.1256 22.5382 41.4972 19.567V19.5684Z" fill="white"/>
<path fill-rule="evenodd" clip-rule="evenodd" d="M41.4969 19.5684C40.3379 23.7634 37.1818 27.7182 33.2148 30.5747C43.1539 28.7531 44.1254 22.5395 41.4969 19.5684Z" fill="#B8B8B8"/>
<path fill-rule="evenodd" clip-rule="evenodd" d="M30.1855 5.67595C37.094 8.48792 40.0166 12.861 40.9895 17.9992C41.2769 16.2627 41.1892 14.4843 40.6063 12.745C39.7616 10.2218 37.8996 7.91311 35.4506 6.48419C34.0851 5.68674 31.6374 4.76247 30.1855 5.67595Z" fill="url(#paint1_linear_145_4586)"/>
<path d="M45.8399 6.13919C46.9193 6.44279 46.0976 7.80829 43.8739 9.80797C41.2967 12.1261 36.8346 15.2956 31.2632 18.6541C31.042 18.7876 30.8207 18.9199 30.6007 19.0521C29.2838 19.8374 27.9709 20.593 26.6769 21.3122C25.078 22.2028 23.5101 23.0366 22.0043 23.8044C18.7092 25.4802 15.7084 26.8295 13.3187 27.7106C10.8724 28.6133 9.06841 29.0249 8.24938 28.7941C6.97023 28.4339 8.36002 26.584 11.5889 23.9528C11.4135 23.5075 11.2462 23.0569 11.0883 22.6048C3.61854 27.9117 -0.235095 31.9367 1.99397 32.5641C3.61044 33.0188 8.1104 31.5967 14.0055 28.9507C16.8175 27.6877 19.9479 26.1481 23.2335 24.4008C24.6125 23.6668 26.0212 22.8963 27.4433 22.0948C28.7873 21.3378 30.1447 20.5525 31.5061 19.7443C31.892 19.5149 32.2793 19.2828 32.6665 19.0494C37.1597 16.3413 41.1119 13.725 44.2922 11.3975C50.9065 6.55613 54.1921 2.95887 52.0953 2.36922C50.5287 1.92799 46.2568 3.24897 40.6315 5.73845C41.1105 6.05149 41.5517 6.41175 41.9498 6.80845C43.797 6.19991 45.1585 5.94759 45.8399 6.13919V6.13919Z" stroke="white" stroke-miterlimit="10"/>
<defs>
<linearGradient id="paint0_linear_145_4586" x1="15.2255" y1="32.1822" x2="19.0711" y2="18.5284" gradientUnits="userSpaceOnUse">
<stop stop-color="white"/>
<stop offset="1" stop-color="white" stop-opacity="0"/>
</linearGradient>
<linearGradient id="paint1_linear_145_4586" x1="39.1687" y1="-0.57163" x2="35.2157" y2="13.4635" gradientUnits="userSpaceOnUse">
<stop stop-color="white"/>
<stop offset="1" stop-color="white" stop-opacity="0"/>
</linearGradient>
</defs>
</svg>
