<svg width="25" height="25" viewBox="0 0 25 25" fill="none" xmlns="http://www.w3.org/2000/svg">
<path d="M18.9984 7.99385V5.99302C18.9984 4.88756 18.1031 3.99219 16.9976 3.99219H5.99302C4.88756 3.99219 3.99219 4.88756 3.99219 5.99302V16.9976C3.99219 18.1031 4.88756 18.9984 5.99302 18.9984H7.99385" stroke="white" stroke-width="1.5" stroke-linecap="round" stroke-linejoin="round"/>
<path fill-rule="evenodd" clip-rule="evenodd" d="M20.4414 21.998H9.54884C8.68848 21.998 7.99219 21.3017 7.99219 20.4414V9.54884C7.99219 8.68848 8.68848 7.99219 9.54884 7.99219H20.4424C21.3017 7.99219 21.998 8.68848 21.998 9.54884V20.4424C21.998 21.3017 21.3017 21.998 20.4414 21.998Z" stroke="white" stroke-width="1.5" stroke-linecap="round" stroke-linejoin="round"/>
<path d="M18.8877 11.883H14.2188" stroke="white" stroke-width="1.5" stroke-linecap="round" stroke-linejoin="round"/>
<path d="M14.2188 15.0002H18.8877" stroke="white" stroke-width="1.5" stroke-linecap="round" stroke-linejoin="round"/>
<path d="M14.2188 18.1096H18.8877" stroke="white" stroke-width="1.5" stroke-linecap="round" stroke-linejoin="round"/>
<path d="M11.1086 14.8061C11.0015 14.8061 10.9145 14.8932 10.9155 15.0002C10.9155 15.1073 11.0025 15.1943 11.1096 15.1943C11.2166 15.1943 11.3037 15.1073 11.3037 15.0002C11.3037 14.8932 11.2166 14.8061 11.1086 14.8061" stroke="white" stroke-width="1.5" stroke-linecap="round" stroke-linejoin="round"/>
<path d="M11.1086 17.9155C11.0015 17.9155 10.9145 18.0025 10.9155 18.1096C10.9155 18.2166 11.0025 18.3037 11.1096 18.3037C11.2166 18.3037 11.3037 18.2166 11.3037 18.1096C11.3037 18.0025 11.2166 17.9155 11.1086 17.9155" stroke="white" stroke-width="1.5" stroke-linecap="round" stroke-linejoin="round"/>
<path d="M11.1086 11.6889C11.0015 11.6889 10.9145 11.776 10.9155 11.883C10.9155 11.9901 11.0025 12.0771 11.1096 12.0771C11.2166 12.0771 11.3037 11.9901 11.3037 11.883C11.3047 11.777 11.2166 11.6889 11.1086 11.6889" stroke="white" stroke-width="1.5" stroke-linecap="round" stroke-linejoin="round"/>
</svg>
