<svg width="28" height="28" viewBox="0 0 28 28" fill="none" xmlns="http://www.w3.org/2000/svg">
<path d="M6.26113 7.47656C4.77388 9.23831 3.875 11.5119 3.875 13.9982C3.875 16.4811 4.77162 18.7524 6.2555 20.5142" stroke="#EDCB50" stroke-width="1.5" stroke-linecap="round" stroke-linejoin="round"/>
<path d="M8.53362 10.0547C7.72925 11.1662 7.25 12.5274 7.25 14.0034C7.25 15.4761 7.727 16.8351 8.528 17.9443" stroke="#EDCB50" stroke-width="1.5" stroke-linecap="round" stroke-linejoin="round"/>
<path fill-rule="evenodd" clip-rule="evenodd" d="M8.99486 22.5669L13.2991 17.6923C13.6726 17.2693 14.3319 17.2693 14.7054 17.6923L19.0096 22.5669C19.5429 23.1721 19.112 24.125 18.3054 24.125H9.69686C8.89024 24.125 8.45936 23.1721 8.99486 22.5669Z" stroke="#EDCB50" stroke-width="1.5" stroke-linecap="round" stroke-linejoin="round"/>
<path fill-rule="evenodd" clip-rule="evenodd" d="M19.0081 5.43312L14.7039 10.3077C14.3304 10.7307 13.6711 10.7307 13.2976 10.3077L8.99337 5.43312C8.46012 4.82788 8.89099 3.875 9.69762 3.875H18.3061C19.1127 3.875 19.5436 4.82788 19.0081 5.43312V5.43312Z" stroke="#EDCB50" stroke-width="1.5" stroke-linecap="round" stroke-linejoin="round"/>
<path d="M21.7478 7.48438C23.2317 9.24612 24.1283 11.5175 24.1283 14.0004C24.1283 16.4866 23.2294 18.7602 21.7422 20.522" stroke="#EDCB50" stroke-width="1.5" stroke-linecap="round" stroke-linejoin="round"/>
<path d="M19.4744 10.0625C20.2754 11.1718 20.7524 12.5308 20.7524 14.0034C20.7524 15.4794 20.2731 16.8406 19.4688 17.9521" stroke="#EDCB50" stroke-width="1.5" stroke-linecap="round" stroke-linejoin="round"/>
</svg>
