<svg width="28" height="28" viewBox="0 0 28 28" fill="none" xmlns="http://www.w3.org/2000/svg">
<path d="M18.4688 11.7188L17.3438 12.8438" stroke="#EDCB50" stroke-width="1.5" stroke-linecap="round" stroke-linejoin="round"/>
<path d="M14 9.5V10.625" stroke="#EDCB50" stroke-width="1.5" stroke-linecap="round" stroke-linejoin="round"/>
<path d="M9.53125 11.7188L10.6562 12.8438" stroke="#EDCB50" stroke-width="1.5" stroke-linecap="round" stroke-linejoin="round"/>
<path d="M20.6953 16.1953H19.5703" stroke="#EDCB50" stroke-width="1.5" stroke-linecap="round" stroke-linejoin="round"/>
<path d="M7.30469 16.1953H8.42969" stroke="#EDCB50" stroke-width="1.5" stroke-linecap="round" stroke-linejoin="round"/>
<path d="M22.4173 20.7499C23.6975 18.8374 24.3455 16.467 24.0564 13.9346C23.5287 9.3154 19.7645 5.56915 15.143 5.0629C9.03987 4.39352 3.875 9.15565 3.875 15.1249C3.875 17.2073 4.505 19.1411 5.58275 20.7499" stroke="#EDCB50" stroke-width="1.5" stroke-linecap="round" stroke-linejoin="round"/>
<path d="M11.75 18.4973V18.4973C11.75 19.737 12.7558 20.7428 13.9978 20.7428H14.0034C15.2443 20.7416 16.25 19.737 16.25 18.4973V18.4973L16.2489 18.4928H16.25C16.25 17.2373 15.0282 15.894 14.3859 15.2741C14.1687 15.0649 13.8324 15.0649 13.6152 15.2741C12.9717 15.894 11.75 17.2373 11.75 18.4916" stroke="#EDCB50" stroke-width="1.4991" stroke-linecap="round" stroke-linejoin="round"/>
</svg>
