<svg width="32" height="32" viewBox="0 0 32 32" fill="none" xmlns="http://www.w3.org/2000/svg">
<path d="M15.3201 3.71875H10.3347C6.23473 3.71875 3.66406 6.62142 3.66406 10.7307V21.8161C3.66406 25.9254 6.22273 28.8281 10.3347 28.8281H22.1001C26.2134 28.8281 28.7721 25.9254 28.7721 21.8161V16.4454" stroke="#9B9B9C" stroke-width="1.5" stroke-linecap="round" stroke-linejoin="round"/>
<path fill-rule="evenodd" clip-rule="evenodd" d="M11.7689 14.5581L21.7329 4.59406C22.9742 3.35406 24.9862 3.35406 26.2275 4.59406L27.8502 6.21673C29.0915 7.45806 29.0915 9.4714 27.8502 10.7114L17.8382 20.7234C17.2955 21.2661 16.5595 21.5714 15.7915 21.5714H10.7969L10.9222 16.5314C10.9409 15.7901 11.2435 15.0834 11.7689 14.5581Z" stroke="#9B9B9C" stroke-width="1.5" stroke-linecap="round" stroke-linejoin="round"/>
<path d="M20.2188 6.13281L26.3067 12.2208" stroke="#9B9B9C" stroke-width="1.5" stroke-linecap="round" stroke-linejoin="round"/>
</svg>
