<?xml version="1.0" standalone="no"?>
<!DOCTYPE svg PUBLIC "-//W3C//DTD SVG 20010904//EN"
 "http://www.w3.org/TR/2001/REC-SVG-20010904/DTD/svg10.dtd">
<svg version="1.0" xmlns="http://www.w3.org/2000/svg"
 width="512.000000pt" height="512.000000pt" viewBox="0 0 512.000000 512.000000"
 preserveAspectRatio="xMidYMid meet">

<g transform="translate(0.000000,512.000000) scale(0.100000,-0.100000)"
fill="#fff" stroke="none">
<path d="M2305 4679 c-487 -61 -933 -284 -1276 -635 -303 -312 -491 -682 -576
-1134 -25 -137 -25 -563 0 -700 53 -280 153 -548 287 -765 260 -423 679 -754
1151 -909 254 -83 451 -111 733 -103 330 9 627 84 910 230 l79 41 415 -138
c381 -127 419 -138 472 -134 105 8 180 83 188 188 4 53 -7 92 -133 471 l-138
414 61 125 c103 213 171 445 203 694 17 135 6 474 -20 611 -82 434 -269 798
-571 1109 -342 352 -770 568 -1253 631 -128 16 -414 18 -532 4z m515 -425
c250 -38 470 -125 696 -275 154 -102 353 -303 457 -459 260 -393 350 -846 257
-1301 -37 -180 -105 -351 -225 -567 -52 -94 -50 -114 50 -412 47 -139 83 -255
82 -257 -2 -1 -118 35 -257 82 -298 100 -318 102 -412 50 -127 -71 -285 -144
-376 -174 -340 -113 -707 -114 -1053 -5 -448 141 -819 464 -1024 889 -130 269
-184 557 -163 866 56 832 723 1506 1564 1578 119 11 275 5 404 -15z"/>
</g>
</svg>
