<svg width="21" height="23" viewBox="0 0 21 23" fill="none" xmlns="http://www.w3.org/2000/svg">
<path fill-rule="evenodd" clip-rule="evenodd" d="M6.4984 12.7904V19.5501C6.49345 20.356 6.85696 21.1069 7.45814 21.5326C8.05933 21.9583 8.81171 21.9976 9.44462 21.6364L12.707 19.7795C13.4015 19.3857 13.8387 18.5764 13.8342 17.6932V12.7904L18.5376 8.65942C19.035 8.22264 19.3275 7.54899 19.3303 6.83389V3.32625C19.3303 2.71091 19.1154 2.12081 18.7329 1.68595C18.3505 1.25108 17.8318 1.00712 17.2913 1.00781H3.0367C1.91186 1.00781 1 2.04581 1 3.32625V6.82345C1.0031 7.53847 1.29554 8.21195 1.79269 8.64899L6.4984 12.7904Z" stroke="white" stroke-width="1.5" stroke-linecap="round" stroke-linejoin="round"/>
</svg>
