<svg width="109" height="69" viewBox="0 0 109 69" fill="none" xmlns="http://www.w3.org/2000/svg">
<path fill-rule="evenodd" clip-rule="evenodd" d="M41.9145 3.48772C35.0232 11.78 40.1041 22.1904 45.3094 31.9626C37.5142 11.2546 64.8707 -10.778 87.3721 22.8626C76.1228 -4.73107 49.4979 -1.81637 41.9145 3.48772Z" fill="#6C0FE3"/>
<path fill-rule="evenodd" clip-rule="evenodd" d="M51.6468 45.6017C48.1079 37.4507 31.7268 33.4373 24.7818 25.7891C23.4769 30.4916 23.4458 35.3551 25.0953 40.0858C31.1732 57.4893 56.9226 63.8328 51.6468 45.6017Z" fill="#45009E"/>
<path fill-rule="evenodd" clip-rule="evenodd" d="M24.7813 25.7768C31.7263 33.4251 48.1074 37.4356 51.6463 45.5895C47.9803 32.9167 31.6275 15.8578 41.9052 3.48438C21.1746 7.0402 19.24 19.6819 24.7785 25.7768H24.7813Z" fill="#6C0FE3"/>
<path fill-rule="evenodd" clip-rule="evenodd" d="M24.7785 25.7768C27.134 17.2473 33.6638 9.24036 41.9052 3.48438C21.1746 7.0402 19.24 19.6819 24.7785 25.7768Z" fill="#45009E"/>
<path fill-rule="evenodd" clip-rule="evenodd" d="M48.6239 54.2543C34.1492 48.4164 27.9781 39.4605 25.8655 28.9766C25.2921 32.5098 25.5039 36.1334 26.7466 39.6864C28.5514 44.8408 32.4772 49.5716 37.6147 52.523C40.4814 54.1696 45.6075 56.0901 48.6239 54.2515V54.2543Z" fill="url(#paint0_linear_378_26071)"/>
<path fill-rule="evenodd" clip-rule="evenodd" d="M67.6802 63.6587C74.6506 55.084 69.6403 44.4278 64.4972 34.4297C72.1483 55.646 44.563 78.4949 22.2734 44.103C33.3307 72.3689 60.0375 69.1661 67.6802 63.6587Z" fill="#6C0FE3"/>
<path fill-rule="evenodd" clip-rule="evenodd" d="M58.2458 20.4779C61.7282 28.8266 78.1178 32.8202 85.0176 40.6267C86.362 35.7858 86.4298 30.7867 84.8114 25.9402C78.8549 8.10736 53.0999 1.78933 58.2458 20.4779Z" fill="#45009E"/>
<path fill-rule="evenodd" clip-rule="evenodd" d="M85.0062 40.6331C78.1063 32.8295 61.7196 28.8331 58.2344 20.4844C61.81 33.4763 78.0668 50.877 67.6705 63.6684C88.4745 59.8555 90.508 46.8495 85.0062 40.6303V40.6331Z" fill="#6C0FE3"/>
<path fill-rule="evenodd" clip-rule="evenodd" d="M85.0232 40.625C82.5971 49.4058 75.991 57.6839 67.6875 63.663C88.4915 59.8502 90.525 46.8442 85.0232 40.625Z" fill="#45009E"/>
<path fill-rule="evenodd" clip-rule="evenodd" d="M61.3438 11.5435C75.8043 17.4294 81.9218 26.583 83.9581 37.3381C84.5597 33.7031 84.3762 29.9807 83.156 26.3401C81.388 21.0586 77.4904 16.2262 72.3643 13.2352C69.5061 11.5661 64.3827 9.6314 61.3438 11.5435Z" fill="url(#paint1_linear_378_26071)"/>
<path d="M94.0926 12.5124C96.352 13.1479 94.632 16.0061 89.9775 20.1918C84.5831 25.044 75.243 31.6783 63.5814 38.7081C63.1182 38.9877 62.655 39.2645 62.1946 39.5413C59.4381 41.185 56.69 42.7666 53.9815 44.272C50.6346 46.1361 47.3528 47.8815 44.2008 49.4885C37.3038 52.9964 31.0225 55.8207 26.0206 57.665C20.9001 59.5544 17.124 60.4159 15.4096 59.9329C12.7322 59.1788 15.6412 55.3067 22.3998 49.7992C22.0327 48.8672 21.6825 47.9239 21.352 46.9777C5.71653 58.0858 -2.34975 66.5108 2.31604 67.8241C5.69959 68.7759 15.1187 65.799 27.4582 60.2605C33.3441 57.617 39.8966 54.3944 46.7738 50.7369C49.6603 49.2005 52.6089 47.5878 55.5857 45.9101C58.3987 44.3257 61.24 42.6819 64.0898 40.9901C64.8975 40.51 65.7081 40.0242 66.5187 39.5356C75.9237 33.8672 84.1961 28.3908 90.8531 23.5188C104.698 13.3852 111.575 5.85549 107.186 4.62126C103.907 3.69771 94.9653 6.46272 83.1907 11.6736C84.1933 12.3289 85.1169 13.083 85.9501 13.9133C89.8166 12.6395 92.6663 12.1114 94.0926 12.5124Z" fill="#AF8B15" stroke="#AF8B15" stroke-miterlimit="10"/>
<defs>
<linearGradient id="paint0_linear_378_26071" x1="30.0143" y1="67.0225" x2="38.0638" y2="38.443" gradientUnits="userSpaceOnUse">
<stop stop-color="white"/>
<stop offset="1" stop-color="white" stop-opacity="0"/>
</linearGradient>
<linearGradient id="paint1_linear_378_26071" x1="80.1469" y1="-1.53373" x2="71.8726" y2="27.8441" gradientUnits="userSpaceOnUse">
<stop stop-color="white"/>
<stop offset="1" stop-color="white" stop-opacity="0"/>
</linearGradient>
</defs>
</svg>
