<svg width="27" height="28" viewBox="0 0 27 28" fill="none" xmlns="http://www.w3.org/2000/svg">
<path fill-rule="evenodd" clip-rule="evenodd" d="M6.75 21.4037C8.51513 19.6881 10.9035 18.6328 13.5259 18.6328C16.1224 18.6328 18.4849 19.6667 20.25 21.3508C18.4849 23.0664 16.0965 24.1217 13.4741 24.1217C10.8776 24.1217 8.51513 23.0878 6.75 21.4037Z" stroke="#ACACAC" stroke-width="1.5" stroke-linecap="round" stroke-linejoin="round"/>
<path d="M4.47188 18.5281C3.78563 17.1624 3.375 15.6335 3.375 14C3.375 8.40425 7.90425 3.875 13.5 3.875C19.0957 3.875 23.625 8.40425 23.625 14C23.625 15.6313 23.2166 17.1612 22.5259 18.5259" stroke="#ACACAC" stroke-width="1.5" stroke-linecap="round" stroke-linejoin="round"/>
<path d="M15.8865 9.36351C17.2045 10.6815 17.2045 12.8185 15.8865 14.1365C14.5685 15.4545 12.4315 15.4545 11.1135 14.1365C9.7955 12.8185 9.7955 10.6815 11.1135 9.36351C12.4315 8.0455 14.5685 8.0455 15.8865 9.36351" stroke="#ACACAC" stroke-width="1.5" stroke-linecap="round" stroke-linejoin="round"/>
</svg>
