<svg width="28" height="28" viewBox="0 0 28 28" fill="none" xmlns="http://www.w3.org/2000/svg">
<path fill-rule="evenodd" clip-rule="evenodd" d="M3.875 13.2048C3.875 16.2231 5.4725 18.8804 7.92387 20.5555C7.92275 21.5174 7.925 22.8134 7.925 24.1735L11.8974 22.2081C12.5769 22.3386 13.2789 22.4095 14 22.4095C19.571 22.4095 24.125 18.3111 24.125 13.2048C24.125 8.09838 19.571 4 14 4C8.429 4 3.875 8.09838 3.875 13.2048Z" stroke="#ACACAC" stroke-width="1.5" stroke-linecap="round" stroke-linejoin="round"/>
<path d="M13.8898 14.3749V14.1421C13.8898 13.3793 14.3612 12.9664 14.8337 12.6492C15.2949 12.3387 15.7573 11.9337 15.7573 11.1867C15.7573 10.1551 14.9214 9.32031 13.8909 9.32031C12.8604 9.32031 12.0234 10.1539 12.0234 11.1856" stroke="#ACACAC" stroke-width="1.5" stroke-linecap="round" stroke-linejoin="round"/>
<path d="M13.8817 17.0031C13.7883 17.0031 13.7129 17.0785 13.7141 17.1719C13.7141 17.2652 13.7894 17.3406 13.8828 17.3406C13.9762 17.3406 14.0516 17.2652 14.0516 17.1719C14.0516 17.0785 13.9773 17.0031 13.8817 17.0031" stroke="#ACACAC" stroke-width="1.5" stroke-linecap="round" stroke-linejoin="round"/>
</svg>
