<svg width="23" height="23" viewBox="0 0 23 23" fill="none" xmlns="http://www.w3.org/2000/svg">
<path fill-rule="evenodd" clip-rule="evenodd" d="M16.75 1H6.24533C3.3485 1 1 3.3485 1 6.24533V16.7558C1 19.6515 3.3485 22 6.24533 22H16.7547C19.6515 22 22 19.6515 22 16.7547V6.25C22 3.35083 19.6492 1 16.75 1V1Z" stroke="white" stroke-width="1.5" stroke-linejoin="round"/>
<path d="M12.59 10.13H11.06V17H9.335V10.13H8.36V8.735H9.335V8.15C9.335 7.2 9.585 6.51 10.085 6.08C10.595 5.64 11.39 5.42 12.47 5.42V6.845C11.95 6.845 11.585 6.945 11.375 7.145C11.165 7.335 11.06 7.67 11.06 8.15V8.735H12.59V10.13Z" fill="white"/>
</svg>
