<svg width="26" height="25" viewBox="0 0 26 25" fill="none" xmlns="http://www.w3.org/2000/svg">
<path fill-rule="evenodd" clip-rule="evenodd" d="M4.29473 4.58346C2.42806 6.58346 1.09473 9.38346 1.09473 12.9835C1.09473 15.6501 2.02806 18.1835 3.49473 20.1835C5.22806 22.4501 7.76139 23.7835 9.09473 24.3168V23.3835C9.09473 23.3835 9.09473 21.2501 10.2947 19.3835C7.62806 19.2501 5.49473 16.7168 5.49473 13.7835C5.49473 12.7168 5.89473 11.7835 6.56139 10.9835L6.69473 8.45013C6.69473 7.78346 7.36139 7.38346 8.02806 7.5168L10.8281 8.58346C11.6281 8.45013 12.4281 8.3168 13.3614 8.3168C14.2947 8.3168 15.0947 8.45013 15.8947 8.58346L18.2947 7.38346C18.9614 7.1168 19.6281 7.65013 19.6281 8.3168L19.7614 10.8501C20.4281 11.6501 20.8281 12.7168 20.8281 13.6501C20.8281 16.5835 18.6947 18.9835 16.0281 19.2501C17.2281 21.1168 17.2281 23.2501 17.2281 23.2501V24.1835C18.5614 23.6501 21.0947 22.3168 22.8281 20.0501C24.2947 18.1835 25.2281 15.5168 25.2281 12.8501C25.2281 9.25013 23.8947 6.45013 22.0281 4.45013C19.4947 1.9168 16.0281 0.716797 13.0947 0.716797C10.1614 0.716797 6.69473 1.9168 4.29473 4.58346V4.58346Z" stroke="#EDCB50" stroke-linecap="round" stroke-linejoin="round"/>
</svg>
