<svg width="30" height="30" viewBox="0 0 30 30" fill="none" xmlns="http://www.w3.org/2000/svg">
<path fill-rule="evenodd" clip-rule="evenodd" d="M9.22564 3.64258H20.1115C23.1106 3.64258 25.543 6.07374 25.543 9.07524V19.9611C25.543 22.9602 23.1118 25.3926 20.1103 25.3926H9.22564C6.22534 25.3926 3.79297 22.9614 3.79297 19.9599V9.07524C3.79297 6.07495 6.22414 3.64258 9.22564 3.64258V3.64258Z" stroke="#EDCB50" stroke-linecap="round" stroke-linejoin="round"/>
<path d="M20.6485 8.12897C20.4237 8.13018 20.2413 8.31264 20.2413 8.53739C20.2413 8.76214 20.4249 8.9446 20.6497 8.9446C20.8744 8.9446 21.0569 8.76214 21.0569 8.53739C21.0581 8.31143 20.8744 8.12897 20.6485 8.12897" stroke="#EDCB50" stroke-linecap="round" stroke-linejoin="round"/>
<path d="M17.7443 11.4421C19.4431 13.1408 19.4431 15.8951 17.7443 17.5939C16.0455 19.2927 13.2912 19.2927 11.5924 17.5939C9.89366 15.8951 9.89366 13.1408 11.5924 11.4421C13.2912 9.74327 16.0455 9.74327 17.7443 11.4421" stroke="#EDCB50" stroke-linecap="round" stroke-linejoin="round"/>
</svg>
