<svg width="30" height="30" viewBox="0 0 30 30" fill="none" xmlns="http://www.w3.org/2000/svg">
<path fill-rule="evenodd" clip-rule="evenodd" d="M9.23047 3.64258H20.1103C23.1106 3.64258 25.543 6.07495 25.543 9.07524V19.9611C25.543 22.9602 23.1106 25.3926 20.1103 25.3926H9.22564C6.22534 25.3926 3.79297 22.9602 3.79297 19.9599V9.08008C3.79297 6.07737 6.22776 3.64258 9.23047 3.64258V3.64258Z" stroke="#EDCB50" stroke-linecap="round" stroke-linejoin="round"/>
<path d="M9.97917 13.4297V19.9547" stroke="#EDCB50" stroke-width="1.5" stroke-linecap="round" stroke-linejoin="round"/>
<path d="M14.3281 19.9547V16.1484C14.3281 14.6465 15.5449 13.4297 17.0469 13.4297V13.4297C18.5488 13.4297 19.7656 14.6465 19.7656 16.1484V19.9547" stroke="#EDCB50" stroke-width="1.5" stroke-linecap="round" stroke-linejoin="round"/>
<path d="M9.97699 9.48854C9.82715 9.48854 9.70511 9.61058 9.70632 9.76042C9.70632 9.91025 9.82836 10.0323 9.97819 10.0323C10.128 10.0323 10.2501 9.91025 10.2501 9.76042C10.2501 9.60937 10.128 9.48854 9.97699 9.48854" stroke="#EDCB50" stroke-width="1.5" stroke-linecap="round" stroke-linejoin="round"/>
</svg>
