<svg width="44" height="22" viewBox="0 0 44 22" fill="none" xmlns="http://www.w3.org/2000/svg">
<circle cx="10.6786" cy="10.6786" r="10.1786" stroke="#EDCB50"/>
<path d="M34.5 10.5C34.5 13.3286 33.8438 15.8648 32.8085 17.6766C31.7652 19.5024 30.4 20.5 29 20.5C27.6 20.5 26.2348 19.5024 25.1915 17.6766C24.1562 15.8648 23.5 13.3286 23.5 10.5C23.5 7.6714 24.1562 5.13516 25.1915 3.32345C26.2348 1.49759 27.6 0.5 29 0.5C30.4 0.5 31.7652 1.49759 32.8085 3.32345C33.8438 5.13516 34.5 7.6714 34.5 10.5Z" stroke="#EDCB50"/>
<path d="M43.5 10.5C43.5 13.0801 43.1139 15.3939 42.5057 17.0447C42.2009 17.872 41.8499 18.5065 41.4853 18.925C41.1198 19.3447 40.7854 19.5 40.5 19.5C40.2146 19.5 39.8802 19.3447 39.5147 18.925C39.1501 18.5065 38.7991 17.872 38.4943 17.0447C37.8861 15.3939 37.5 13.0801 37.5 10.5C37.5 7.91989 37.8861 5.60609 38.4943 3.95534C38.7991 3.128 39.1501 2.49347 39.5147 2.07496C39.8802 1.6553 40.2146 1.5 40.5 1.5C40.7854 1.5 41.1198 1.6553 41.4853 2.07496C41.8499 2.49347 42.2009 3.128 42.5057 3.95534C43.1139 5.60609 43.5 7.91989 43.5 10.5Z" stroke="#EDCB50"/>
</svg>
