<svg width="31" height="30" viewBox="0 0 31 30" fill="none" xmlns="http://www.w3.org/2000/svg">
<path d="M24.668 11.3154C24.668 11.0393 24.4441 10.8154 24.168 10.8154C23.8918 10.8154 23.668 11.0393 23.668 11.3154H24.668ZM4.3169 19.714C4.15043 19.4937 3.83687 19.45 3.61655 19.6165C3.39622 19.783 3.35257 20.0965 3.51904 20.3169L4.3169 19.714ZM3.83577 19.5222C3.56338 19.5676 3.37937 19.8252 3.42477 20.0976C3.47017 20.37 3.72778 20.554 4.00017 20.5086L3.83577 19.5222ZM7.29297 18.9279L7.44704 19.4036C7.61359 19.3497 7.7398 19.2125 7.77976 19.0421C7.81973 18.8716 7.76764 18.6927 7.64244 18.5703L7.29297 18.9279ZM6.16797 5.87793L6.60493 5.6349C6.52234 5.4864 6.36999 5.39001 6.20042 5.37898C6.03086 5.36795 5.8673 5.44379 5.76617 5.58034L6.16797 5.87793ZM12.918 11.3154L12.8036 11.8022C12.9494 11.8364 13.1028 11.8035 13.2217 11.7126C13.3406 11.6216 13.4126 11.4822 13.4177 11.3325L12.918 11.3154ZM23.043 8.05293L22.6299 8.33462C22.723 8.47121 22.8776 8.55293 23.043 8.55293V8.05293ZM26.418 8.05293L26.8296 8.3368C26.9351 8.18383 26.947 7.98499 26.8606 7.82048C26.7743 7.65597 26.6038 7.55293 26.418 7.55293V8.05293ZM23.7564 11.0316C23.5996 11.2589 23.6568 11.5703 23.8841 11.727C24.1114 11.8838 24.4228 11.8266 24.5796 11.5993L23.7564 11.0316ZM23.668 11.3154C23.668 15.0253 22.5722 18.1582 20.5643 20.358C18.5618 22.5519 15.609 23.8654 11.793 23.8654V24.8654C15.8519 24.8654 19.0866 23.4602 21.3029 21.0322C23.5137 18.6101 24.668 15.218 24.668 11.3154H23.668ZM11.793 23.8654C9.63562 23.8654 8.15973 23.3238 7.03948 22.5576C5.90493 21.7815 5.10454 20.7564 4.3169 19.714L3.51904 20.3169C4.30265 21.354 5.18976 22.5039 6.4749 23.3829C7.77433 24.2718 9.45031 24.8654 11.793 24.8654V23.8654ZM4.00017 20.5086C4.02489 20.5045 4.04489 20.4991 4.04512 20.499C4.0509 20.4975 4.05576 20.4962 4.05859 20.4954C4.06453 20.4937 4.0704 20.4919 4.07507 20.4905C4.08483 20.4876 4.09709 20.4838 4.1108 20.4795C4.13859 20.4708 4.17737 20.4586 4.22499 20.4434C4.32047 20.4131 4.45443 20.3701 4.61359 20.319C4.93207 20.2166 5.35311 20.0808 5.77277 19.9452C6.19249 19.8096 6.61105 19.6742 6.92467 19.5727C7.08149 19.522 7.21207 19.4797 7.30346 19.4501C7.34915 19.4353 7.38504 19.4237 7.40951 19.4158C7.42175 19.4118 7.43113 19.4088 7.43745 19.4067C7.44061 19.4057 7.44301 19.4049 7.44462 19.4044C7.44542 19.4041 7.44603 19.4039 7.44643 19.4038C7.44663 19.4037 7.44679 19.4037 7.44689 19.4036C7.44694 19.4036 7.44698 19.4036 7.447 19.4036C7.44703 19.4036 7.44704 19.4036 7.29297 18.9279C7.13889 18.4523 7.13888 18.4523 7.13886 18.4523C7.13883 18.4523 7.13879 18.4523 7.13874 18.4523C7.13864 18.4523 7.13849 18.4524 7.13829 18.4525C7.13789 18.4526 7.13728 18.4528 7.13648 18.453C7.13488 18.4536 7.13248 18.4543 7.12933 18.4554C7.12301 18.4574 7.11364 18.4604 7.10141 18.4644C7.07696 18.4723 7.04109 18.4839 6.99541 18.4987C6.90407 18.5283 6.77353 18.5706 6.61677 18.6213C6.30324 18.7228 5.88485 18.8581 5.46535 18.9936C5.0458 19.1292 4.62535 19.2648 4.30762 19.3669C4.14868 19.418 4.01585 19.4606 3.92181 19.4905C3.87466 19.5055 3.83799 19.5171 3.81289 19.5249C3.80016 19.5289 3.79161 19.5315 3.78661 19.533C3.7839 19.5338 3.7839 19.5338 3.78554 19.5334C3.78621 19.5332 3.78931 19.5323 3.79372 19.5312C3.79593 19.5306 3.80002 19.5295 3.80526 19.5283C3.80901 19.5274 3.82062 19.5248 3.83577 19.5222L4.00017 20.5086ZM7.64244 18.5703C4.0659 15.0751 3.79909 9.91645 6.56977 6.17552L5.76617 5.58034C2.70185 9.71774 3.00504 15.4365 6.9435 19.2855L7.64244 18.5703ZM5.73101 6.12096C7.16647 8.7019 9.85382 11.1092 12.8036 11.8022L13.0323 10.8287C10.4171 10.2143 7.93697 8.02988 6.60493 5.6349L5.73101 6.12096ZM13.4177 11.3325C13.4675 9.87586 14.001 8.64208 14.8795 7.77427C15.7565 6.90801 17.0059 6.37793 18.543 6.37793V5.37793C16.7663 5.37793 15.257 5.99577 14.1767 7.06284C13.0981 8.12836 12.4759 9.61334 12.4183 11.2983L13.4177 11.3325ZM18.543 6.37793C19.609 6.37793 20.4229 6.574 21.0662 6.90591C21.7079 7.23693 22.2096 7.71833 22.6299 8.33462L23.4561 7.77124C22.9601 7.04386 22.3399 6.43776 21.5247 6.0172C20.7112 5.59752 19.7332 5.37793 18.543 5.37793V6.37793ZM23.043 8.55293H26.418V7.55293H23.043V8.55293ZM26.0064 7.76906L23.7564 11.0316L24.5796 11.5993L26.8296 8.3368L26.0064 7.76906Z" fill="#acacac"/>
</svg>
